<svg xmlns="http://www.w3.org/2000/svg" xmlns:xlink="http://www.w3.org/1999/xlink" width="500" zoomAndPan="magnify" viewBox="0 0 375 374.999991" height="500" preserveAspectRatio="xMidYMid meet" version="1.0"><path fill="#457b9d" d="M 274.160156 96.660156 C 274.832031 91.511719 276.773438 77.328125 273.488281 64.414062 C 270.203125 51.503906 261.917969 39.933594 243.855469 38.664062 C 241.242188 38.664062 238.703125 38.664062 236.089844 39.335938 C 225.867188 41.949219 218.773438 50.308594 213.625 62.550781 C 208.472656 74.789062 205.265625 90.914062 204.59375 107.632812 C 203.324219 128.234375 204.59375 149.507812 207.800781 163.015625 C 208.472656 164.957031 207.128906 166.898438 205.191406 167.496094 C 203.25 167.496094 201.308594 166.824219 200.710938 164.882812 C 198.769531 160.40625 160.777344 71.433594 211.683594 20.601562 C 224.597656 8.359375 237.433594 1.941406 249.078125 1.269531 C 259.378906 0 269.082031 3.210938 277.441406 8.359375 C 285.207031 13.511719 292.296875 21.273438 296.777344 30.230469 C 303.867188 42.472656 307.074219 56.652344 305.808594 68.894531 C 329.617188 65.683594 348.351562 74.714844 359.25 88.226562 C 365.074219 95.316406 368.878906 103.675781 369.550781 112.039062 C 370.820312 121.070312 369.550781 130.101562 365.074219 137.789062 C 356.710938 153.910156 336.113281 166.75 299.984375 167.421875 C 298.042969 167.421875 296.105469 166.152344 296.105469 164.210938 C 296.105469 162.269531 297.371094 161.003906 299.3125 160.332031 C 310.285156 157.71875 319.914062 153.910156 326.410156 149.359375 C 332.828125 144.207031 336.707031 138.386719 336.035156 131.292969 C 336.035156 129.355469 336.035156 128.085938 335.363281 126.816406 C 333.425781 113.902344 325.738281 106.8125 316.703125 103.601562 C 307.074219 99.722656 295.433594 99.125 287.742188 99.722656 C 283.265625 99.722656 279.980469 100.394531 278.113281 100.992188 C 276.175781 100.992188 274.234375 99.722656 274.234375 97.78125 C 274.160156 97.929688 274.160156 97.332031 274.160156 96.660156 Z M 350.816406 18.734375 C 355.292969 23.214844 357.90625 29.707031 357.90625 36.125 C 357.90625 42.546875 355.292969 49.039062 350.816406 54.191406 C 345.664062 58.667969 339.246094 61.28125 332.753906 61.28125 C 326.332031 61.28125 319.839844 58.667969 315.359375 54.191406 C 315.359375 54.191406 315.359375 54.191406 314.691406 53.519531 C 310.210938 49.039062 307.597656 42.546875 307.597656 36.125 C 307.597656 29.707031 310.210938 23.214844 315.359375 18.734375 C 319.839844 13.585938 326.332031 11.644531 332.753906 11.644531 C 339.246094 11.644531 345.664062 13.585938 350.816406 18.734375 Z M 350.816406 18.734375 " fill-opacity="1" fill-rule="nonzero"/><path fill="#e63946" d="M 278.039062 273.859375 C 283.191406 275.128906 297.371094 276.472656 310.882812 273.1875 C 323.125 269.980469 334.695312 262.214844 336.035156 243.554688 C 336.035156 240.945312 336.035156 238.40625 335.367188 236.464844 C 333.425781 226.164062 324.394531 218.402344 312.824219 213.25 C 299.910156 208.101562 283.863281 205.488281 267.738281 204.21875 C 246.46875 202.949219 225.867188 204.890625 211.683594 207.429688 C 209.742188 208.101562 207.800781 206.757812 207.800781 204.816406 C 207.128906 203.546875 208.472656 201.605469 209.742188 200.933594 C 214.222656 198.996094 303.195312 161.003906 354.027344 211.90625 C 366.9375 224.820312 372.6875 237.0625 374.03125 248.632812 C 374.703125 259.605469 372.089844 269.234375 366.265625 276.996094 C 361.117188 285.355469 353.355469 291.847656 344.992188 297 C 332.753906 303.417969 318.570312 307.300781 305.734375 305.359375 C 309.613281 329.171875 300.582031 348.503906 286.398438 359.472656 C 279.308594 365.296875 270.949219 368.507812 262.589844 369.773438 C 254.230469 371.042969 245.199219 369.101562 236.839844 365.296875 C 220.714844 356.265625 207.878906 335.664062 207.207031 299.613281 C 207.207031 297.671875 209.144531 296.402344 211.085938 296.402344 C 213.027344 296.402344 214.296875 297.671875 214.296875 299.015625 C 217.507812 310.585938 221.386719 321.554688 227.210938 327.976562 C 231.6875 333.125 236.839844 336.335938 243.929688 335.738281 C 261.992188 335.066406 270.351562 323.496094 273.5625 310.585938 C 276.769531 297.671875 274.832031 282.890625 274.234375 278.339844 C 273.5625 276.398438 274.90625 274.457031 276.847656 273.859375 C 277.367188 273.859375 278.039062 273.859375 278.039062 273.859375 Z M 356.636719 350.515625 C 355.964844 350.515625 355.964844 350.515625 355.964844 350.515625 C 351.488281 355.667969 344.992188 357.609375 338.574219 357.609375 C 332.15625 357.609375 325.660156 355.667969 321.183594 350.515625 L 320.511719 350.515625 C 316.03125 345.367188 313.421875 338.949219 313.421875 333.125 C 313.421875 326.707031 316.03125 320.214844 321.183594 315.0625 C 325.660156 310.585938 332.15625 307.972656 338.574219 307.972656 C 344.992188 307.972656 351.488281 310.585938 356.636719 315.0625 C 361.117188 320.214844 363.730469 326.632812 363.730469 333.125 C 363.730469 339.621094 361.117188 345.964844 356.636719 350.515625 Z M 356.636719 350.515625 " fill-opacity="1" fill-rule="nonzero"/><path fill="#a8dadc" d="M 100.839844 278.339844 C 100.839844 280.28125 100.167969 283.488281 100.167969 287.371094 C 99.496094 295.730469 99.496094 306.703125 103.378906 316.332031 C 107.261719 325.363281 114.351562 333.050781 127.191406 335.664062 C 128.457031 335.664062 129.800781 335.664062 131.070312 335.664062 C 133.683594 336.335938 136.222656 335.664062 138.832031 335.664062 C 149.132812 333.050781 156.226562 324.691406 161.375 312.449219 C 166.527344 300.207031 169.734375 284.085938 170.40625 267.367188 C 171.675781 246.765625 170.40625 225.492188 167.199219 211.984375 C 166.527344 210.042969 167.871094 208.101562 169.808594 207.503906 C 171.75 206.832031 173.691406 208.175781 173.691406 210.117188 C 176.304688 214.59375 214.296875 303.566406 163.390625 354.398438 C 150.476562 366.640625 137.640625 373.058594 125.996094 373.730469 C 115.695312 375 105.992188 371.789062 97.632812 366.640625 C 89.867188 360.816406 82.777344 353.726562 78.300781 344.769531 C 71.207031 332.453125 68 318.273438 69.265625 305.433594 C 45.457031 309.316406 26.722656 300.285156 15.824219 286.773438 C 10.003906 279.609375 6.121094 271.246094 5.523438 262.886719 C 4.253906 253.855469 5.523438 244.824219 10.003906 237.136719 C 18.363281 220.417969 38.964844 208.175781 75.089844 207.503906 C 77.03125 207.503906 78.972656 208.773438 78.972656 210.714844 C 78.972656 212.652344 77.703125 213.921875 75.761719 214.59375 C 64.789062 217.207031 55.160156 221.015625 48.667969 225.566406 C 42.246094 230.71875 38.367188 236.539062 39.039062 243.628906 C 40.304688 262.289062 51.949219 270.054688 64.191406 273.261719 C 77.703125 276.472656 91.882812 275.203125 97.035156 273.933594 C 98.976562 273.933594 100.914062 275.203125 100.914062 277.144531 C 100.839844 277.070312 100.839844 277.742188 100.839844 278.339844 Z M 24.183594 356.339844 C 19.707031 351.1875 17.09375 345.367188 17.09375 338.949219 C 17.09375 332.527344 19.707031 326.035156 24.183594 320.882812 C 29.335938 316.40625 35.753906 313.792969 42.246094 313.792969 C 48.742188 313.792969 55.160156 316.40625 59.640625 320.882812 C 64.789062 326.035156 67.328125 332.453125 67.328125 338.949219 C 67.328125 345.441406 64.789062 351.113281 59.640625 356.339844 C 55.160156 361.488281 48.667969 363.429688 42.246094 363.429688 C 35.828125 363.429688 29.335938 361.488281 24.183594 356.339844 Z M 24.183594 356.339844 " fill-opacity="1" fill-rule="nonzero"/><path fill="#1d3557" d="M 96.960938 101.214844 C 95.019531 100.542969 91.808594 99.945312 87.332031 99.945312 C 79.566406 99.273438 68 99.945312 58.371094 103.828125 C 49.339844 107.035156 41.648438 114.128906 39.710938 127.039062 C 39.039062 128.308594 39.039062 129.652344 39.039062 131.519531 C 39.039062 134.132812 39.039062 136.667969 39.710938 138.609375 C 41.648438 148.910156 50.683594 156.671875 62.25 161.152344 C 75.164062 166.972656 91.210938 169.511719 107.335938 170.78125 C 128.609375 172.050781 149.207031 170.109375 163.390625 166.898438 C 165.332031 166.898438 167.273438 168.167969 167.273438 170.109375 C 167.945312 171.378906 166.601562 173.316406 165.332031 173.988281 C 160.851562 175.929688 71.878906 213.921875 21.050781 163.015625 C 8.0625 150.179688 2.3125 137.9375 0.96875 125.695312 C 0.296875 115.394531 2.910156 105.691406 8.734375 98.003906 C 13.882812 89.644531 21.644531 83.152344 30.007812 78 C 42.246094 71.582031 56.429688 67.699219 69.265625 69.640625 C 65.386719 45.828125 74.417969 26.496094 88.601562 15.527344 C 95.691406 9.703125 104.050781 6.492188 112.410156 5.226562 C 120.769531 3.957031 129.800781 5.898438 138.160156 9.703125 C 154.285156 18.734375 167.121094 39.335938 167.792969 75.386719 C 167.792969 77.328125 165.855469 78.597656 163.914062 78.597656 C 161.972656 78.597656 160.703125 77.328125 160.703125 75.984375 C 157.492188 63.742188 153.613281 53.445312 147.789062 47.023438 C 143.3125 41.875 138.160156 38.664062 131.070312 38.664062 C 129.800781 39.335938 128.457031 39.335938 127.191406 39.335938 C 114.277344 41.949219 107.183594 49.636719 103.378906 58.667969 C 99.496094 68.296875 99.496094 79.269531 100.167969 87.628906 C 100.167969 91.511719 100.839844 94.71875 100.839844 96.660156 C 101.511719 98.601562 100.167969 100.542969 98.226562 101.140625 C 97.632812 101.214844 96.960938 101.214844 96.960938 101.214844 Z M 18.363281 24.558594 C 23.511719 19.40625 29.929688 16.792969 36.425781 16.792969 C 42.917969 16.792969 49.339844 19.40625 53.816406 24.558594 C 58.96875 29.035156 61.578125 35.53125 61.578125 41.949219 C 61.578125 48.367188 58.96875 54.785156 53.816406 59.9375 C 49.339844 64.414062 42.84375 67.027344 36.425781 67.027344 C 30.007812 67.027344 23.511719 64.492188 18.363281 59.9375 C 13.882812 54.785156 11.269531 48.367188 11.269531 41.875 C 11.269531 35.378906 13.882812 29.035156 18.363281 24.558594 Z M 18.363281 24.558594 " fill-opacity="1" fill-rule="nonzero"/></svg>